<?xml version="1.0" standalone="no"?><!DOCTYPE svg PUBLIC "-//W3C//DTD SVG 1.1//EN" "http://www.w3.org/Graphics/SVG/1.1/DTD/svg11.dtd"><svg t="1783013445394" class="icon" viewBox="0 0 1024 1024" version="1.1" xmlns="http://www.w3.org/2000/svg" p-id="5962" xmlns:xlink="http://www.w3.org/1999/xlink" width="200" height="200"><path d="M492.782075 899.972511c-24.831097 0-48.126249-11.903567-62.845714-32.638812l-126.715391-179.065487c-1.279953-1.791935-6.143777-3.455874-5.503799-2.815897l-219.38402 2.815897c-29.310934 0.767972-56.317951-15.743427-69.757463-42.110468-13.439511-26.367041-10.879604-57.46991 6.911749-81.149048L146.682664 389.143093c1.279953-1.791935 1.663939-4.095851 0.895968-6.271772l-70.397439-207.736444c-9.471655-28.03098-2.431912-58.493872 18.559324-79.357113 20.863241-20.863241 51.198138-28.03098 79.357114-18.431329l207.736443 70.397439c1.91993 0.639977 4.351842 0.255991 6.271772-1.023963L564.843454 15.396688c23.807134-17.663357 54.782007-20.35126 81.277043-6.911749C672.359543 21.92445 688.614952 48.675477 688.230966 78.242402l-2.815898 219.38402c0 2.303916 1.023963 4.351842 2.815898 5.631795l179.193481 126.715391c24.063125 17.023381 36.222682 45.822333 31.61485 75.005271s-25.087087 52.862077-53.374058 61.693756L636.136861 631.822265c-2.047926 0.639977-3.83986 2.303916-4.479838 4.479838l-65.14963 209.400383c-8.831679 28.286971-32.382822 48.638231-61.693756 53.374058-3.967856 0.639977-8.063707 0.895967-12.031562 0.895967zM297.845166 615.054875c24.959092 0 48.38224 12.159558 62.973709 32.638813l126.715391 179.065487c1.535944 2.175921 3.455874 3.199884 6.527762 2.815897 2.687902-0.383986 4.607832-2.047926 5.375805-4.735828L564.459468 615.310866c7.551725-24.319115 26.623032-43.262426 50.814151-50.814152l209.528379-65.14963c2.687902-0.767972 4.223846-2.687902 4.735828-5.5038 0.383986-2.687902-0.511981-4.991818-2.815898-6.527762l-179.193482-126.715391c-20.735246-14.719465-32.894803-38.526599-32.510817-63.997672l2.815897-219.38402c0-2.815898-1.151958-4.863823-3.711865-6.143776s-4.863823-1.023963-7.039744 0.639976L431.216315 203.037862c-20.479255 15.103451-46.846296 19.327297-71.037417 11.263591l-207.736443-70.525435c-2.687902-0.895967-4.991818-0.383986-6.911749 1.66394-1.91993 1.91993-2.559907 4.351842-1.663939 7.039744l70.525434 207.736443c8.191702 24.063125 3.967856 50.558161-11.26359 70.909421L71.805388 606.991169c-1.663939 2.303916-1.91993 4.735828-0.639977 7.167739 1.279953 2.431912 2.303916 3.455874 6.143777 3.711865l219.38402-2.815898h1.151958z" fill="#ADADB1" p-id="5963"></path><path d="M988.764034 1024c-9.087669 0-18.047344-3.455874-24.959092-10.367623l-380.146173-380.146172c-13.695502-13.695502-13.695502-36.094687 0-49.790189s36.094687-13.695502 49.790189 0L1013.723126 963.970184c13.695502 13.695502 13.695502 36.094687 0 49.790188-7.039744 6.783753-15.999418 10.239628-24.959092 10.239628z" fill="#ADADB1" p-id="5964"></path></svg>