<?xml version="1.0" standalone="no"?><!DOCTYPE svg PUBLIC "-//W3C//DTD SVG 1.1//EN" "http://www.w3.org/Graphics/SVG/1.1/DTD/svg11.dtd"><svg t="1783011295050" class="icon" viewBox="0 0 1024 1024" version="1.1" xmlns="http://www.w3.org/2000/svg" p-id="4899" xmlns:xlink="http://www.w3.org/1999/xlink" width="200" height="200"><path d="M512 112.512a22.741333 22.741333 0 0 0-21.12 13.056L418.645333 270.933333A164.437333 164.437333 0 0 1 294.826667 360.277333l-161.536 23.296a22.613333 22.613333 0 0 0-19.072 15.957334 22.442667 22.442667 0 0 0 5.973333 24.021333l116.906667 113.237333a162.56 162.56 0 0 1 47.274666 144.554667l-27.605333 159.744a21.632 21.632 0 0 0 4.864 18.773333 24.917333 24.917333 0 0 0 18.389333 8.874667 23.381333 23.381333 0 0 0 11.008-2.901333l144.512-75.52a165.504 165.504 0 0 1 153.045334 0l144.469333 75.52c3.413333 1.834667 7.168 2.858667 11.008 2.901333a24.96 24.96 0 0 0 18.389333-8.874667 21.717333 21.717333 0 0 0 4.864-18.773333l-27.562666-159.744a162.56 162.56 0 0 1 47.274666-144.554667l116.906667-113.237333a22.442667 22.442667 0 0 0 5.973333-24.021333 22.613333 22.613333 0 0 0-19.072-15.957334l-161.536-23.296A164.437333 164.437333 0 0 1 605.44 270.933333l-72.234667-145.365333a22.741333 22.741333 0 0 0-21.12-13.056M512 42.666667a93.013333 93.013333 0 0 1 84.309333 52.053333l72.277334 145.365333a93.952 93.952 0 0 0 70.784 51.072l161.536 23.296c35.242667 4.736 64.682667 29.312 75.776 63.232 11.093333 33.92 1.92 71.253333-23.68 96.042667l-116.864 113.237333a93.013333 93.013333 0 0 0-27.050667 82.56l27.605333 159.744a94.208 94.208 0 0 1-21.034666 76.373334 93.312 93.312 0 0 1-71.637334 33.024 94.208 94.208 0 0 1-43.776-10.965334l-144.469333-75.477333a94.592 94.592 0 0 0-87.552 0l-144.469333 75.52a93.44 93.44 0 0 1-98.56-6.784 94.421333 94.421333 0 0 1-37.888-91.690667l27.605333-159.744a93.013333 93.013333 0 0 0-27.008-82.56l-116.906667-113.237333a93.397333 93.397333 0 0 1-23.68-96c11.093333-33.962667 40.533333-58.538667 75.776-63.274667l161.536-23.296a93.952 93.952 0 0 0 70.826667-51.072l72.234667-145.365333A93.013333 93.013333 0 0 1 512 42.666667z" fill="#393B46" p-id="4900"></path><path d="M313.429333 490.666667a36.48 36.48 0 0 1-36.010666-34.261334 36.736 36.736 0 0 1 30.890666-39.210666l68.394667-10.154667c16.512-2.432 30.762667-13.013333 38.144-28.288l28.416-59.008c5.589333-12.032 17.066667-20.053333 30.122667-20.992a35.84 35.84 0 0 1 32.682666 16.512 37.546667 37.546667 0 0 1 1.92 37.162667l-28.458666 58.965333a123.008 123.008 0 0 1-92.458667 68.693333l-68.394667 10.197334a35.413333 35.413333 0 0 1-5.248 0.384z" fill="#F58B25" p-id="4901"></path></svg>