<?xml version="1.0" standalone="no"?><!DOCTYPE svg PUBLIC "-//W3C//DTD SVG 1.1//EN" "http://www.w3.org/Graphics/SVG/1.1/DTD/svg11.dtd"><svg t="1783011258829" class="icon" viewBox="0 0 1024 1024" version="1.1" xmlns="http://www.w3.org/2000/svg" p-id="4753" xmlns:xlink="http://www.w3.org/1999/xlink" width="200" height="200"><path d="M512 931.413333a128 128 0 0 1-92.16-38.826666l-256-265.813334a279.893333 279.893333 0 0 1-11.946667-386.56 286.293333 286.293333 0 0 1 201.386667-90.453333A261.546667 261.546667 0 0 1 512 200.106667a261.546667 261.546667 0 0 1 158.72-50.346667 288 288 0 0 1 203.093333 90.453333 280.32 280.32 0 0 1-12.8 386.986667l-256 265.386667a128 128 0 0 1-93.013333 38.826666zM357.546667 235.093333h-2.986667A203.093333 203.093333 0 0 0 213.333333 298.666667a193.706667 193.706667 0 0 0 11.093334 267.946666l256 266.666667a42.666667 42.666667 0 0 0 61.44 0l256-266.24A194.133333 194.133333 0 0 0 810.666667 298.666667a203.093333 203.093333 0 0 0-142.08-63.573334 170.666667 170.666667 0 0 0-128 51.2l-30.293334 29.866667-30.293333-29.866667a174.08 174.08 0 0 0-122.453333-51.2z" p-id="4754"></path></svg>