<svg xmlns="http://www.w3.org/2000/svg" width="640" height="640" viewBox="0 0 640 640">
  <rect width="640" height="640" fill="#efe4d1"/>
  <circle cx="178" cy="168" r="96" fill="#d9614f" opacity=".82"/>
  <path d="M0 452c74-42 140-52 198-31 56 20 118 8 185-37 82-55 168-60 257-16v272H0Z" fill="#7f4931" opacity=".64"/>
  <path d="M0 508c97-28 176-22 238 19 72 48 181 48 326 0l76-23v136H0Z" fill="#2e4f48" opacity=".84"/>
  <path d="M420 118c24 36 53 54 87 54-32 22-65 26-99 12 26 27 58 40 97 39" stroke="#5d6b4f" stroke-width="18" fill="none" stroke-linecap="round"/>
</svg>
