<svg xmlns="http://www.w3.org/2000/svg" width="640" height="640" viewBox="0 0 640 640">
  <rect width="640" height="640" fill="#e9efe8"/>
  <path d="M0 402c110-34 190-31 240 9 58 47 132 49 223 6 69-33 128-28 177 14v209H0Z" fill="#b8d0bd"/>
  <path d="M45 178c62-16 112-8 151 24-66 10-117 2-151-24Zm226-36c64-9 113 5 148 42-67 3-116-11-148-42Zm160 188c58-22 108-19 149 10-60 18-110 15-149-10Z" fill="#437d50"/>
  <path d="M110 70c-10 160-1 320 27 480M345 36c-42 146-49 306-20 480M522 98c-30 112-34 234-12 366" stroke="#2f704d" stroke-width="20" stroke-linecap="round"/>
</svg>
